<?xml version="1.0" standalone="no"?>
<!DOCTYPE svg PUBLIC "-//W3C//DTD SVG 20010904//EN"
 "http://www.w3.org/TR/2001/REC-SVG-20010904/DTD/svg10.dtd">
<svg version="1.0" xmlns="http://www.w3.org/2000/svg"
 width="406.000000pt" height="406.000000pt" viewBox="0 0 406.000000 406.000000"
 preserveAspectRatio="xMidYMid meet">
<metadata>
Created by potrace 1.11, written by Peter Selinger 2001-2013
</metadata>
<g transform="translate(0.000000,406.000000) scale(0.100000,-0.100000)"
fill="#000000" stroke="none">
<path d="M1775 3984 c-351 -48 -697 -197 -975 -421 -96 -77 -258 -245 -332
-345 -226 -300 -358 -653 -390 -1043 -42 -501 137 -1036 475 -1426 l75 -87
-59 -58 c-32 -32 -59 -64 -59 -71 0 -32 27 -21 83 35 l60 60 101 -85 c136
-115 256 -193 409 -269 753 -372 1657 -223 2252 372 590 590 744 1483 385
2232 -84 175 -234 397 -329 486 -17 17 -31 35 -31 41 0 6 25 35 55 65 30 30
55 60 55 67 0 27 -36 11 -87 -39 l-53 -52 -37 32 c-188 160 -293 233 -458 315
-216 107 -416 167 -655 197 -114 14 -362 11 -485 -6z m463 -35 c382 -41 736
-192 1035 -440 48 -40 87 -77 87 -83 0 -6 -210 -222 -468 -479 l-468 -467 -34
26 c-100 74 -223 114 -352 114 -168 0 -292 -52 -414 -174 -58 -58 -90 -100
-112 -147 -93 -195 -79 -417 37 -590 l42 -63 -468 -468 c-257 -257 -471 -468
-475 -468 -15 0 -142 158 -214 265 -412 618 -425 1431 -33 2072 155 253 403
494 666 650 347 204 773 296 1171 252z m-72 -1403 c75 -20 170 -74 225 -127
216 -210 223 -543 16 -753 -110 -111 -227 -160 -382 -160 -148 1 -261 48 -366
153 -170 170 -207 413 -97 625 62 119 210 236 334 265 60 14 213 12 270 -3z"/>
<path d="M2011 2506 c-16 -17 -35 -26 -56 -26 -95 0 -218 -73 -292 -173 -24
-34 -57 -67 -73 -73 -34 -15 -60 -83 -60 -159 0 -59 12 -75 56 -75 55 0 95 37
119 110 31 90 47 120 94 167 69 69 143 82 157 29 8 -32 -7 -57 -85 -141 -36
-40 -92 -102 -125 -139 -61 -70 -73 -78 -143 -96 -39 -10 -43 -13 -43 -43 0
-40 34 -97 57 -97 10 0 43 -26 74 -59 88 -91 213 -151 314 -151 30 0 47 -6 61
-21 24 -27 78 -22 158 14 52 24 56 28 56 60 0 24 -8 41 -30 62 -35 33 -60 36
-171 15 -73 -13 -80 -12 -145 9 -81 26 -114 53 -114 93 0 54 26 55 236 8 200
-44 233 -57 275 -101 35 -38 51 -36 84 6 22 30 26 42 20 73 -4 27 0 51 16 86
18 42 21 63 17 155 -3 93 -7 114 -34 171 -24 50 -30 74 -27 105 4 38 2 43 -50
92 -70 67 -102 76 -134 39 -16 -20 -23 -39 -23 -71 0 -38 7 -52 45 -97 74 -88
99 -135 103 -199 6 -76 -3 -107 -33 -121 -37 -17 -61 11 -86 96 -11 39 -39
128 -61 199 -40 123 -41 129 -30 189 7 38 8 66 2 72 -5 5 -30 11 -57 13 -42 4
-51 2 -72 -21z m84 -418 c36 -42 33 -82 -9 -124 -35 -35 -62 -42 -99 -23 -35
18 -57 51 -57 89 0 46 23 78 63 88 46 12 74 4 102 -30z"/>
</g>
</svg>
